<?xml version="1.0" encoding="iso-8859-1"?><svg viewBox="0 0 512 512" xmlns="http://www.w3.org/2000/svg" xmlns:xlink="http://www.w3.org/1999/xlink"><style>:root>svg{display:none}:root>svg:target{display:block}</style><svg viewBox="0 0 512.001 512.001" id="svg" xmlns="http://www.w3.org/2000/svg"><path d="M494.145 80.27L426.069 9.296C420.4 3.388 412.457 0 404.271 0H134.884c-16.654 0-30.203 13.549-30.203 30.203v94.531H48.098c-21.311 0-38.649 17.339-38.649 38.65v74.181c0 21.311 17.338 38.649 38.649 38.649h56.583v205.584c0 16.654 13.549 30.203 30.203 30.203h337.465c16.654 0 30.203-13.549 30.203-30.203V101.177a30.074 30.074 0 00-8.407-20.907zM413.43 39.491l50.485 52.634H413.43V39.491zM48.098 246.192c-4.757 0-8.627-3.87-8.627-8.627v-74.181c0-4.757 3.87-8.628 8.627-8.628h190.19c4.757 0 8.627 3.871 8.627 8.628v74.181c0 4.757-3.87 8.627-8.627 8.627H48.098zM472.53 481.797a.182.182 0 01-.181.181H134.884a.181.181 0 01-.181-.181V276.214h103.585c21.311 0 38.649-17.338 38.649-38.649v-74.181c0-21.312-17.338-38.65-38.649-38.65H134.703V30.203c0-.1.081-.181.181-.181H383.41v76.675l.002.219-.002.219c0 8.29 6.721 15.011 15.011 15.011h74.11v359.651z"/><path d="M75.232 181.391c0-3.187 2.981-6.169 10.281-6.169 8.43 0 10.384 3.907 14.084 3.907 4.524 0 6.375-5.655 6.375-8.431 0-8.019-15.011-9.048-20.459-9.048-12.852 0-26.32 5.86-26.32 21.282 0 24.058 32.591 21.899 32.591 34.339 0 4.936-5.243 6.786-9.973 6.786-9.562 0-12.646-7.609-17.478-7.609-3.907 0-6.991 5.141-6.991 8.636 0 6.786 11.309 13.366 24.778 13.366 14.907 0 25.704-8.02 25.704-22.825 0-25.906-32.592-23.954-32.592-34.234zM160.051 162.269c-2.571 0-4.627.823-5.244 2.981l-14.29 52.742-14.394-52.742c-.616-2.16-2.673-2.981-5.243-2.981-4.421 0-10.28 2.776-10.28 6.58 0 .308.103.72.205 1.131l19.226 62.715c1.13 3.599 5.757 5.346 10.487 5.346s9.356-1.747 10.487-5.346l19.122-62.715c.104-.411.206-.823.206-1.131-.001-3.804-5.862-6.58-10.282-6.58zM221.12 197.943h-17.274c-3.084 0-4.832 3.187-4.832 6.169 0 3.187 1.747 6.169 4.832 6.169h6.066v3.495c0 6.991-3.496 10.281-9.253 10.281s-9.151-3.29-9.151-10.281V186.53c0-6.991 3.393-10.281 9.253-10.281 8.739 0 9.048 5.552 9.151 9.254.104 3.701 3.702 4.832 8.02 4.832 5.449 0 8.02-1.439 8.02-7.609 0-13.057-11.104-20.46-25.806-20.46-13.469 0-24.675 6.58-24.675 24.264v27.246c0 17.684 11.001 24.264 25.188 24.264 14.188 0 25.291-6.58 25.291-24.264V202.98c.001-2.672-1.746-5.037-4.83-5.037z"/></svg></svg>